<svg width="1600" height="1200" viewBox="0 0 1600 1200" fill="none" xmlns="http://www.w3.org/2000/svg">
  <defs>
    <linearGradient id="bg" x1="1600" y1="0" x2="0" y2="1200" gradientUnits="userSpaceOnUse">
      <stop stop-color="#10152B"/>
      <stop offset="1" stop-color="#0E2E21"/>
    </linearGradient>
    <linearGradient id="card" x1="0" y1="0" x2="1" y2="1">
      <stop stop-color="#172A47"/>
      <stop offset="1" stop-color="#102339"/>
    </linearGradient>
    <linearGradient id="fun1" x1="0" y1="0" x2="1" y2="1">
      <stop stop-color="#A78BFA"/>
      <stop offset="1" stop-color="#7C3AED"/>
    </linearGradient>
    <linearGradient id="fun2" x1="0" y1="0" x2="1" y2="1">
      <stop stop-color="#F472B6"/>
      <stop offset="1" stop-color="#DB2777"/>
    </linearGradient>
    <linearGradient id="fun3" x1="0" y1="0" x2="1" y2="1">
      <stop stop-color="#F59E0B"/>
      <stop offset="1" stop-color="#D97706"/>
    </linearGradient>
  </defs>

  <rect width="1600" height="1200" fill="url(#bg)"/>

  <circle cx="220" cy="160" r="110" fill="#7C3AED" opacity="0.2"/>
  <circle cx="1420" cy="1060" r="190" fill="#059669" opacity="0.16"/>

  <g transform="translate(120 180)">
    <rect x="0" y="0" width="1360" height="840" rx="38" fill="#0E1A32" stroke="#2A4A73" stroke-width="2"/>

    <g transform="translate(80 80)">
      <rect x="0" y="0" width="360" height="280" rx="28" fill="url(#card)" stroke="#335A88"/>
      <circle cx="84" cy="88" r="38" fill="url(#fun1)"/>
      <rect x="150" y="70" width="170" height="20" rx="10" fill="#EDE9FE"/>
      <rect x="150" y="108" width="130" height="14" rx="7" fill="#C4B5FD"/>
      <rect x="54" y="170" width="250" height="16" rx="8" fill="#C4B5FD" opacity="0.65"/>
      <rect x="54" y="202" width="220" height="14" rx="7" fill="#C4B5FD" opacity="0.45"/>
    </g>

    <g transform="translate(500 80)">
      <rect x="0" y="0" width="360" height="280" rx="28" fill="url(#card)" stroke="#335A88"/>
      <circle cx="84" cy="88" r="38" fill="url(#fun2)"/>
      <rect x="150" y="70" width="170" height="20" rx="10" fill="#FCE7F3"/>
      <rect x="150" y="108" width="130" height="14" rx="7" fill="#F9A8D4"/>
      <rect x="54" y="170" width="250" height="16" rx="8" fill="#F9A8D4" opacity="0.65"/>
      <rect x="54" y="202" width="220" height="14" rx="7" fill="#F9A8D4" opacity="0.45"/>
    </g>

    <g transform="translate(920 80)">
      <rect x="0" y="0" width="360" height="280" rx="28" fill="url(#card)" stroke="#335A88"/>
      <circle cx="84" cy="88" r="38" fill="url(#fun3)"/>
      <rect x="150" y="70" width="170" height="20" rx="10" fill="#FEF3C7"/>
      <rect x="150" y="108" width="130" height="14" rx="7" fill="#FCD34D"/>
      <rect x="54" y="170" width="250" height="16" rx="8" fill="#FCD34D" opacity="0.65"/>
      <rect x="54" y="202" width="220" height="14" rx="7" fill="#FCD34D" opacity="0.45"/>
    </g>

    <g transform="translate(110 470)">
      <path d="M80 150C80 95 123 52 178 52H840C895 52 938 95 938 150V164C938 219 895 262 840 262H178C123 262 80 219 80 164V150Z" fill="#122542" stroke="#3A628F" stroke-width="2"/>
      <circle cx="180" cy="157" r="54" fill="#22D3EE"/>
      <circle cx="410" cy="157" r="54" fill="#34D399"/>
      <circle cx="640" cy="157" r="54" fill="#A78BFA"/>
      <circle cx="870" cy="157" r="54" fill="#F59E0B"/>
      <path d="M234 157H356" stroke="#67E8F9" stroke-width="8" stroke-linecap="round" stroke-dasharray="10 14"/>
      <path d="M464 157H586" stroke="#6EE7B7" stroke-width="8" stroke-linecap="round" stroke-dasharray="10 14"/>
      <path d="M694 157H816" stroke="#C4B5FD" stroke-width="8" stroke-linecap="round" stroke-dasharray="10 14"/>
    </g>
  </g>
</svg>
